<?xml version="1.0" encoding="UTF-8" standalone="no"?>
<svg
   xmlns:dc="http://purl.org/dc/elements/1.1/"
   xmlns:cc="http://creativecommons.org/ns#"
   xmlns:rdf="http://www.w3.org/1999/02/22-rdf-syntax-ns#"
   xmlns:svg="http://www.w3.org/2000/svg"
   xmlns="http://www.w3.org/2000/svg"
   xmlns:xlink="http://www.w3.org/1999/xlink"
   xmlns:sodipodi="http://sodipodi.sourceforge.net/DTD/sodipodi-0.dtd"
   xmlns:inkscape="http://www.inkscape.org/namespaces/inkscape"
   version="1.1"
   viewBox="0 0 47.5 47.5"
   style="enable-background:new 0 0 47.5 47.5;"
   id="svg2"
   xml:space="preserve"
   sodipodi:docname="icon.svg"
   inkscape:version="0.92.4 5da689c313, 2019-01-14"><metadata
     id="metadata3809"><rdf:RDF><cc:Work
         rdf:about=""><dc:format>image/svg+xml</dc:format><dc:type
           rdf:resource="http://purl.org/dc/dcmitype/StillImage" /></cc:Work></rdf:RDF></metadata><sodipodi:namedview
     pagecolor="#ffffff"
     bordercolor="#666666"
     borderopacity="1"
     objecttolerance="10"
     gridtolerance="10"
     guidetolerance="10"
     inkscape:pageopacity="0"
     inkscape:pageshadow="2"
     inkscape:window-width="1920"
     inkscape:window-height="1056"
     id="namedview3807"
     showgrid="false"
     inkscape:zoom="9.9368421"
     inkscape:cx="39.973135"
     inkscape:cy="43.51531"
     inkscape:window-x="0"
     inkscape:window-y="0"
     inkscape:window-maximized="1"
     inkscape:current-layer="svg2" /><title
     id="title3794" /><defs
     id="defs6"><linearGradient
       id="linearGradient4781-7"
       inkscape:collect="always"><stop
         id="stop4777"
         offset="0"
         style="stop-color:#b2ddff;stop-opacity:1" /><stop
         id="stop4779"
         offset="1"
         style="stop-color:#ffffff;stop-opacity:1" /></linearGradient><linearGradient
       inkscape:collect="always"
       xlink:href="#linearGradient4781-7"
       id="linearGradient3819-5"
       x1="16.90678"
       y1="9.4597454"
       x2="17.108051"
       y2="23.347458"
       gradientUnits="userSpaceOnUse"
       gradientTransform="matrix(1.1243628,0,0,1.1243628,-1.0995092,-4.0750089)" /></defs><path
     style="fill:#ffffff;fill-opacity:1;stroke:none;stroke-width:0.67400002;stroke-miterlimit:4;stroke-dasharray:none;stroke-opacity:1"
     d="M 12.378179,5.6355934 34.115467,5.5349578 40.858052,24.051907 33.612289,42.46822 H 13.082628 L 7.4364977,23.946437 Z"
     id="rect5046"
     inkscape:connector-curvature="0"
     sodipodi:nodetypes="ccccccc" /><g
     aria-label="{}"
     transform="matrix(1.6348919,0,0,1.4844829,-25.64219,-11.825556)"
     style="font-style:normal;font-weight:normal;font-size:26.96296501px;line-height:1.25;font-family:sans-serif;letter-spacing:0px;word-spacing:0px;fill:#d66613;fill-opacity:1;stroke:#d66613;stroke-width:0.67400002;stroke-miterlimit:4;stroke-dasharray:none;stroke-opacity:0.43981481"
     id="text4628"><path
       d="m 26.763044,34.656015 v 1.895833 h -0.816261 q -3.278212,0 -4.397281,-0.974248 -1.105903,-0.974247 -1.105903,-3.883825 v -3.146557 q 0,-1.987992 -0.710937,-2.751592 -0.710938,-0.763599 -2.58044,-0.763599 h -0.803096 v -1.882668 h 0.803096 q 1.882668,0 2.58044,-0.750434 0.710937,-0.7636 0.710937,-2.725261 v -3.159722 q 0,-2.909578 1.105903,-3.87066 1.119069,-0.974248 4.397281,-0.974248 h 0.816261 v 1.882668 H 25.86779 q -1.856337,0 -2.422454,0.579282 -0.566117,0.579283 -0.566117,2.43562 v 3.265046 q 0,2.066985 -0.605614,3.001736 -0.592448,0.934752 -2.040654,1.263889 1.461372,0.355469 2.05382,1.29022 0.592448,0.934752 0.592448,2.988571 v 3.265047 q 0,1.856337 0.566117,2.435619 0.566117,0.579283 2.422454,0.579283 z"
       style="fill:#d66613;fill-opacity:1;stroke:#d66613;stroke-width:0.67400002;stroke-miterlimit:4;stroke-dasharray:none;stroke-opacity:0.43981481"
       id="path4968"
       inkscape:connector-curvature="0" /><path
       d="m 33.516951,34.656015 h 0.921586 q 1.843171,0 2.396123,-0.566117 0.566117,-0.566117 0.566117,-2.448785 v -3.265047 q 0,-2.053819 0.592448,-2.988571 0.592448,-0.934751 2.053819,-1.29022 -1.461371,-0.329137 -2.053819,-1.263889 -0.592448,-0.934751 -0.592448,-3.001736 v -3.265046 q 0,-1.869503 -0.566117,-2.43562 -0.552952,-0.579282 -2.396123,-0.579282 h -0.921586 v -1.882668 h 0.829427 q 3.278213,0 4.37095,0.974248 1.105903,0.961082 1.105903,3.87066 v 3.159722 q 0,1.961661 0.710937,2.725261 0.710938,0.750434 2.58044,0.750434 h 0.816262 v 1.882668 h -0.816262 q -1.869502,0 -2.58044,0.763599 -0.710937,0.7636 -0.710937,2.751592 v 3.146557 q 0,2.909578 -1.105903,3.883825 -1.092737,0.974248 -4.37095,0.974248 h -0.829427 z"
       style="fill:#d66613;fill-opacity:1;stroke:#d66613;stroke-width:0.67400002;stroke-miterlimit:4;stroke-dasharray:none;stroke-opacity:0.43981481"
       id="path4970"
       inkscape:connector-curvature="0" /></g><text
     xml:space="preserve"
     style="font-style:normal;font-weight:normal;font-size:31.35123444px;line-height:1.25;font-family:sans-serif;letter-spacing:0px;word-spacing:0px;fill:#4d4d4d;fill-opacity:1;stroke:#4d4d4d;stroke-width:0.78378087;stroke-opacity:1;"
     x="14.063645"
     y="36.228817"
     id="text5044"><tspan
       sodipodi:role="line"
       id="tspan5042"
       x="14.063645"
       y="36.228817"
       style="stroke-width:0.78378087;fill:#4d4d4d;stroke:#4d4d4d;stroke-opacity:1;fill-opacity:1;">T</tspan></text>
</svg>